<svg xmlns="http://www.w3.org/2000/svg" viewBox="0 0 100 100" width="100" height="100">
<defs>
<linearGradient id="a-about-bg" x1="0" y1="0" x2="0" y2="1"><stop offset="0" stop-color="#ffffff"/><stop offset="1" stop-color="#f3f2f6"/></linearGradient>
</defs>
<path d="M50 0C88 0 100 12 100 50s-12 50-50 50S0 88 0 50 12 0 50 0Z" fill="url(#a-about-bg)"/>
<path d="M50 0C88 0 100 12 100 50s-12 50-50 50S0 88 0 50 12 0 50 0Z" fill="none" stroke="#0b0b0c" stroke-opacity=".08" stroke-width="1.2" transform="translate(.6 .6) scale(.988)"/>
<g transform="translate(25 25) scale(2.083)" fill="none" stroke="#1a1920" stroke-width="1.85" stroke-linecap="round" stroke-linejoin="round"><path d="M16 20v-1.5a4 4 0 0 0-4-4H7a4 4 0 0 0-4 4V20"/><circle cx="9.5" cy="7.5" r="3.5"/><path d="M21 20v-1.5a4 4 0 0 0-3-3.85"/><path d="M15.5 4.15a3.5 3.5 0 0 1 0 6.7"/></g>
</svg>
