<svg xmlns="http://www.w3.org/2000/svg" viewBox="0 0 100 100" width="100" height="100">
<defs>
<linearGradient id="k-notes-s" x1="0" y1="0" x2="0" y2="1"><stop offset="0" stop-color="#dcd9d3"/><stop offset="1" stop-color="#b9b5ae"/></linearGradient>
<linearGradient id="k-notes-f" x1=".2" y1="0" x2=".8" y2="1"><stop offset="0" stop-color="#ffffff"/><stop offset="1" stop-color="#efeeeb"/></linearGradient>
<radialGradient id="k-notes-h" cx=".3" cy=".12" r=".8"><stop offset="0" stop-color="#fff" stop-opacity=".95"/><stop offset=".6" stop-color="#fff" stop-opacity="0"/></radialGradient>
<linearGradient id="k-notes-l" x1="0" y1="0" x2="0" y2="1"><stop offset="0" stop-color="#fff" stop-opacity="1"/><stop offset=".35" stop-color="#fff" stop-opacity="0"/></linearGradient>
</defs>
<rect x="1" y="3" width="98" height="96" rx="21" fill="url(#k-notes-s)"/>
<rect x="1" y="3" width="98" height="96" rx="21" fill="none" stroke="#101214" stroke-opacity=".28" stroke-width="1.2"/>
<rect x="7" y="4" width="86" height="82" rx="17" fill="url(#k-notes-f)"/>
<rect x="7" y="4" width="86" height="82" rx="17" fill="url(#k-notes-h)"/>
<rect x="7.6" y="4.6" width="84.8" height="80.8" rx="16.4" fill="none" stroke="url(#k-notes-l)" stroke-width="1.2"/>
<g transform="translate(29.5 26.4) scale(1.708)" fill="none" stroke="#ffffff" stroke-opacity=".9" stroke-width="2" stroke-linecap="round" stroke-linejoin="round"><rect x="4.5" y="3" width="15" height="18" rx="3"/><path d="M8.5 8h7M8.5 12h7M8.5 16h4"/></g>
<g transform="translate(29.5 25.5) scale(1.708)" fill="none" stroke="#1b1d22" stroke-width="2" stroke-linecap="round" stroke-linejoin="round"><rect x="4.5" y="3" width="15" height="18" rx="3"/><path d="M8.5 8h7M8.5 12h7M8.5 16h4"/></g>
</svg>
