<svg xmlns="http://www.w3.org/2000/svg" viewBox="0 0 100 100" width="100" height="100">
<defs>
<linearGradient id="a-file-bg" x1=".15" y1="0" x2=".85" y2="1"><stop offset="0" stop-color="#ffffff"/><stop offset="1" stop-color="#eeeef1"/></linearGradient>
<radialGradient id="a-file-sp" cx=".26" cy=".1" r=".75"><stop offset="0" stop-color="#fff" stop-opacity=".9"/><stop offset="1" stop-color="#fff" stop-opacity="0"/></radialGradient>
<linearGradient id="a-file-rim" x1="0" y1="0" x2="1" y2="1"><stop offset="0" stop-color="#fff" stop-opacity=".95"/><stop offset=".55" stop-color="#fff" stop-opacity="0"/></linearGradient>
<linearGradient id="a-file-edge" x1="0" y1="0" x2="1" y2="1"><stop offset="0" stop-color="#0b0b0c" stop-opacity=".05"/><stop offset="1" stop-color="#0b0b0c" stop-opacity=".18"/></linearGradient>
</defs>
<path d="M14 0H86A14 14 0 0 1 100 14V86A14 14 0 0 1 86 100H14A14 14 0 0 1 0 86V14A14 14 0 0 1 14 0Z" fill="url(#a-file-bg)"/>
<path d="M14 0H86A14 14 0 0 1 100 14V86A14 14 0 0 1 86 100H14A14 14 0 0 1 0 86V14A14 14 0 0 1 14 0Z" fill="url(#a-file-sp)"/>
<path d="M14 0H86A14 14 0 0 1 100 14V86A14 14 0 0 1 86 100H14A14 14 0 0 1 0 86V14A14 14 0 0 1 14 0Z" fill="none" stroke="url(#a-file-rim)" stroke-width="2" transform="translate(1 1) scale(.98)"/>
<path d="M14 0H86A14 14 0 0 1 100 14V86A14 14 0 0 1 86 100H14A14 14 0 0 1 0 86V14A14 14 0 0 1 14 0Z" fill="none" stroke="url(#a-file-edge)" stroke-width="1" transform="translate(.5 .5) scale(.99)"/>
<g transform="translate(25.7 26.1) scale(2.083)" fill="none" stroke="#0b0b0c" stroke-opacity=".12" stroke-width="1.85" stroke-linecap="round" stroke-linejoin="round"><path d="M14.5 2.5H6.5a2 2 0 0 0-2 2v15a2 2 0 0 0 2 2h11a2 2 0 0 0 2-2V7.5Z"/><path d="M14 2.5v4a1.5 1.5 0 0 0 1.5 1.5h4"/></g>
<g transform="translate(25 25) scale(2.083)" fill="none" stroke="#1a1920" stroke-width="1.85" stroke-linecap="round" stroke-linejoin="round"><path d="M14.5 2.5H6.5a2 2 0 0 0-2 2v15a2 2 0 0 0 2 2h11a2 2 0 0 0 2-2V7.5Z"/><path d="M14 2.5v4a1.5 1.5 0 0 0 1.5 1.5h4"/></g>
</svg>
